<?xml version="1.0" standalone="no"?>
<!DOCTYPE svg PUBLIC "-//W3C//DTD SVG 20010904//EN"
 "http://www.w3.org/TR/2001/REC-SVG-20010904/DTD/svg10.dtd">
<svg version="1.0" xmlns="http://www.w3.org/2000/svg"
 width="512.000000pt" height="512.000000pt" viewBox="0 0 512.000000 512.000000"
 preserveAspectRatio="xMidYMid meet">

<g transform="translate(0.000000,512.000000) scale(0.100000,-0.100000)"
fill="#000000" stroke="none">
<path d="M3333 5058 c-5 -7 -15 -32 -22 -55 -18 -65 -69 -124 -136 -158 l-59
-30 -315 -5 c-316 -5 -316 -5 -326 -27 -8 -19 -18 -23 -57 -23 -38 0 -48 4
-53 20 -12 39 -82 39 -92 0 -4 -17 -14 -20 -54 -20 -38 0 -51 4 -56 18 -11 28
-24 32 -111 32 -220 0 -401 -141 -457 -357 -12 -45 -15 -128 -15 -394 l0 -336
-65 -5 c-279 -23 -395 -358 -190 -547 61 -56 104 -73 198 -80 l79 -6 27 -85
c35 -110 98 -230 162 -309 28 -35 49 -64 47 -66 -2 -2 -169 -81 -373 -175
-203 -95 -382 -184 -398 -198 -54 -51 -60 -143 -12 -200 17 -20 92 -61 235
-128 115 -54 210 -101 210 -104 0 -4 -88 -47 -195 -96 -107 -49 -211 -102
-230 -117 -62 -50 -71 -145 -20 -205 17 -20 92 -61 235 -128 115 -54 210 -101
210 -104 0 -3 -88 -46 -196 -95 -218 -100 -268 -135 -279 -199 -10 -53 9 -110
48 -141 18 -14 349 -174 737 -355 587 -274 712 -329 749 -330 36 0 94 23 305
121 144 66 269 130 279 141 9 12 15 28 12 37 -4 12 7 23 39 38 38 19 46 20 56
7 19 -22 67 -18 80 7 7 11 9 27 6 35 -4 10 9 21 38 36 41 20 45 20 61 5 9 -10
23 -17 30 -17 13 0 384 169 514 235 38 19 78 46 90 61 44 56 37 146 -16 196
-16 14 -119 68 -230 119 -112 52 -203 96 -203 99 0 3 91 48 202 100 111 52
214 105 230 118 34 29 53 88 44 136 -13 68 -49 94 -270 196 -113 52 -206 97
-206 100 0 3 91 48 203 100 123 57 214 106 234 125 58 58 54 160 -10 210 -18
14 -196 103 -397 196 -201 94 -366 172 -368 174 -2 2 18 30 45 63 63 78 124
195 162 307 l30 90 78 6 c43 3 95 13 115 22 57 24 133 101 159 160 32 71 33
191 2 258 -49 107 -149 177 -268 187 l-65 5 0 164 0 164 39 52 c88 117 131
250 131 401 0 200 -88 381 -250 512 -67 54 -107 67 -127 42z m-1489 -1120
c-32 -46 -82 -116 -111 -157 l-53 -74 0 157 0 156 111 0 110 0 -57 -82z m1422
-165 l177 -247 -6 -181 c-7 -238 -35 -345 -131 -510 -51 -88 -200 -239 -282
-287 -525 -306 -1179 -32 -1319 552 -13 51 -20 130 -23 250 l-4 176 173 246
174 247 532 0 532 1 177 -247z m174 91 l0 -157 -103 144 c-57 79 -106 150
-111 157 -5 9 18 12 103 12 l111 0 0 -156z m-1860 -459 l0 -215 -47 0 c-62 1
-122 28 -160 75 -118 143 -19 350 170 354 l37 1 0 -215z m2115 180 c52 -30 95
-97 102 -158 14 -125 -84 -236 -209 -237 l-48 0 0 216 0 217 55 -6 c33 -3 74
-16 100 -32z m-1570 -1165 c161 -79 237 -95 445 -94 161 0 182 2 265 28 111
33 231 92 309 150 l58 44 92 -42 c50 -24 225 -105 389 -181 172 -81 303 -147
308 -157 6 -11 7 -27 4 -37 -4 -13 -218 -118 -715 -350 -390 -182 -714 -331
-720 -331 -8 0 -710 324 -1299 601 -69 32 -129 65 -133 74 -17 29 3 56 55 80
29 13 207 95 395 183 l344 160 51 -39 c29 -22 97 -62 152 -89z m-45 -866 c334
-156 451 -207 480 -207 29 0 147 51 485 208 l446 208 122 -57 c67 -32 177 -83
245 -114 128 -58 151 -79 134 -116 -7 -15 -201 -110 -713 -349 -387 -180 -711
-327 -719 -327 -28 0 -1423 658 -1433 675 -21 38 5 57 249 171 131 62 244 113
250 113 6 1 210 -92 454 -205z m-598 -684 c62 -27 78 -43 78 -75 0 -21 -29
-45 -55 -45 -24 0 -114 38 -140 60 -20 16 -19 49 2 72 22 25 39 23 115 -12z
m2270 13 c23 -20 23 -45 1 -70 -10 -11 -268 -136 -573 -278 -305 -142 -569
-265 -587 -273 -32 -15 -32 -15 -480 193 -246 115 -456 215 -465 223 -10 8
-18 24 -18 35 0 26 28 57 51 57 9 0 211 -90 449 -201 l431 -201 567 265 c312
146 576 266 586 266 11 1 28 -6 38 -16z"/>
<path d="M2096 3637 c-14 -10 -17 -25 -14 -72 3 -55 5 -60 30 -69 42 -15 68
14 68 74 0 67 -40 99 -84 67z"/>
<path d="M2957 3632 c-25 -27 -23 -104 3 -127 16 -15 26 -17 48 -9 25 9 27 14
30 69 3 47 0 62 -14 72 -25 18 -48 16 -67 -5z"/>
<path d="M2522 3578 c-8 -8 -12 -58 -12 -158 0 -130 2 -149 18 -163 24 -22 45
-21 65 1 14 16 17 43 17 163 0 156 -4 169 -50 169 -14 0 -31 -5 -38 -12z"/>
<path d="M2256 3035 c-23 -24 -20 -55 12 -106 45 -71 116 -126 190 -149 81
-25 123 -25 205 0 147 46 281 241 182 266 -31 8 -46 -4 -79 -61 -35 -59 -77
-92 -143 -111 -106 -31 -202 10 -271 114 -40 61 -68 75 -96 47z"/>
<path d="M760 4290 c-19 -10 -175 -160 -347 -332 -273 -274 -313 -318 -323
-356 -22 -83 -1 -128 108 -236 71 -69 83 -78 109 -73 22 4 35 -1 60 -25 26
-25 30 -35 22 -50 -8 -14 -6 -26 6 -45 14 -20 23 -24 48 -20 26 4 38 -1 64
-25 26 -26 31 -36 26 -64 -5 -31 1 -39 88 -127 118 -118 148 -137 218 -137
107 0 181 74 181 182 0 77 -22 106 -274 358 l-216 215 234 235 c129 129 240
248 245 263 15 40 14 123 -3 155 -19 36 -65 78 -99 91 -43 16 -108 12 -147 -9z"/>
<path d="M4210 4299 c-32 -13 -78 -56 -96 -91 -17 -32 -18 -115 -3 -155 5 -15
116 -134 245 -263 l234 -235 -216 -215 c-119 -118 -229 -235 -245 -259 -57
-88 -29 -209 59 -259 47 -26 128 -30 170 -8 15 8 169 158 344 333 265 266 318
324 327 358 13 49 13 51 0 100 -9 33 -62 91 -322 353 -172 173 -329 322 -349
333 -40 20 -107 24 -148 8z"/>
</g>
</svg>
